<mxfile host="app.diagrams.net" agent="Mozilla/5.0 (Windows NT 10.0; Win64; x64) AppleWebKit/537.36 (KHTML, like Gecko) Chrome/131.0.0.0 Safari/537.36" version="25.0.3">
  <diagram name="Page-1" id="BTrZdvJjS2LKx3tNQFaP">
    <mxGraphModel dx="1434" dy="746" grid="1" gridSize="10" guides="1" tooltips="1" connect="1" arrows="1" fold="1" page="1" pageScale="1" pageWidth="827" pageHeight="1169" math="0" shadow="0">
      <root>
        <mxCell id="0" />
        <mxCell id="1" parent="0" />
        <mxCell id="TZcL42v7IluTFo0evE-g-10" value="" style="group" vertex="1" connectable="0" parent="1">
          <mxGeometry width="800" height="560" as="geometry" />
        </mxCell>
        <mxCell id="TZcL42v7IluTFo0evE-g-1" value="" style="rounded=0;whiteSpace=wrap;html=1;" vertex="1" parent="TZcL42v7IluTFo0evE-g-10">
          <mxGeometry width="800" height="560" as="geometry" />
        </mxCell>
        <mxCell id="TZcL42v7IluTFo0evE-g-9" value="" style="group" vertex="1" connectable="0" parent="TZcL42v7IluTFo0evE-g-10">
          <mxGeometry width="310" height="30" as="geometry" />
        </mxCell>
        <mxCell id="TZcL42v7IluTFo0evE-g-7" value="&lt;span style=&quot;text-align: left;&quot;&gt;dfd lvl:0 Farm Inventory Manager Context Diagram&lt;/span&gt;" style="verticalLabelPosition=middle;verticalAlign=middle;html=1;shape=mxgraph.basic.diag_snip_rect;dx=6;whiteSpace=wrap;direction=west;portConstraint=none;portConstraintRotation=0;labelPosition=center;align=center;" vertex="1" parent="TZcL42v7IluTFo0evE-g-9">
          <mxGeometry width="310" height="30" as="geometry" />
        </mxCell>
        <mxCell id="TZcL42v7IluTFo0evE-g-8" value="" style="verticalLabelPosition=bottom;verticalAlign=top;html=1;shape=mxgraph.basic.rect;fillColor2=none;strokeWidth=1;size=20;indent=5;strokeColor=default;perimeterSpacing=8;right=0;absoluteCornerSize=1;" vertex="1" parent="TZcL42v7IluTFo0evE-g-9">
          <mxGeometry width="20" height="30" as="geometry" />
        </mxCell>
        <mxCell id="TZcL42v7IluTFo0evE-g-11" value="manager" style="rounded=0;whiteSpace=wrap;html=1;" vertex="1" parent="TZcL42v7IluTFo0evE-g-10">
          <mxGeometry x="40" y="170" width="80" height="30" as="geometry" />
        </mxCell>
        <mxCell id="TZcL42v7IluTFo0evE-g-12" value="Inventory&lt;div&gt;Manager&lt;/div&gt;&lt;div&gt;System&lt;/div&gt;" style="rounded=1;whiteSpace=wrap;html=1;" vertex="1" parent="TZcL42v7IluTFo0evE-g-10">
          <mxGeometry x="270" y="190" width="120" height="60" as="geometry" />
        </mxCell>
      </root>
    </mxGraphModel>
  </diagram>
</mxfile>
